<?xml version="1.0" encoding="UTF-8" standalone="no"?>
<svg
   xmlns:dc="http://purl.org/dc/elements/1.1/"
   xmlns:cc="http://creativecommons.org/ns#"
   xmlns:rdf="http://www.w3.org/1999/02/22-rdf-syntax-ns#"
   xmlns:svg="http://www.w3.org/2000/svg"
   xmlns="http://www.w3.org/2000/svg"
   viewBox="0 0 77.5 77.5"
   height="77.5"
   width="77.5"
   xml:space="preserve"
   version="1.1"
   id="svg2"><metadata
     id="metadata8"><rdf:RDF><cc:Work
         rdf:about=""><dc:format>image/svg+xml</dc:format><dc:type
           rdf:resource="http://purl.org/dc/dcmitype/StillImage" /><dc:title></dc:title></cc:Work></rdf:RDF></metadata><defs
     id="defs6"><clipPath
       id="clipPath18"
       clipPathUnits="userSpaceOnUse"><path
         id="path20"
         d="M 0,0 62,0 62,62 0,62 0,0 Z" /></clipPath></defs><g
     transform="matrix(1.25,0,0,-1.25,0,77.5)"
     id="g10"><g
       id="g12" /><g
       id="g14"><g
         clip-path="url(#clipPath18)"
         id="g16"><path
           id="path22"
           style="fill:#57c5a3;fill-opacity:1;fill-rule:nonzero;stroke:none"
           d="m 9.344737,52.56673 c -11.911043,-11.91098 -11.911043,-31.22248 0,-43.133463 11.910983,-11.911043 31.222483,-11.911043 43.133463,0 11.91105,11.910983 11.91105,31.222483 0,43.133463 -11.91098,11.91105 -31.22248,11.91105 -43.133463,0" /><path
           id="path24"
           style="fill:#ffffff;fill-opacity:1;fill-rule:nonzero;stroke:none"
           d="m 37.96386,25.32193 c -1.06217,0 -2.01253,-0.41928 -2.73928,-1.07615 l -9.96482,5.8 c 0.06988,0.32145 0.12578,0.64289 0.12578,0.97832 0,0.33542 -0.0559,0.65686 -0.12578,0.97831 l 9.85301,5.7441 c 0.7547,-0.6988 1.74699,-1.13205 2.85109,-1.13205 2.32,0 4.19277,1.87277 4.19277,4.19277 0,2.32 -1.87277,4.19277 -4.19277,4.19277 -2.32,0 -4.19278,-1.87277 -4.19278,-4.19277 0,-0.33542 0.05591,-0.65687 0.12579,-0.97831 l -9.85301,-5.7441 c -0.7547,0.69879 -1.74699,1.13205 -2.85109,1.13205 -2.32,0 -4.19277,-1.87277 -4.19277,-4.19277 0,-2.32 1.87277,-4.19277 4.19277,-4.19277 1.1041,0 2.09639,0.43325 2.85109,1.13204 L 33.9947,22.1494 c -0.06988,-0.2935 -0.11181,-0.60097 -0.11181,-0.90844 0,-2.25012 1.83084,-4.08096 4.08097,-4.08096 2.25012,0 4.08096,1.83084 4.08096,4.08096 0,2.25012 -1.83084,4.08097 -4.08096,4.08097 z" /></g></g></g></svg>